<svg width="50" height="20" viewBox="0 0 83 43" fill="none" xmlns="http://www.w3.org/2000/svg">
<path d="M63.9177 1.59189C61.917 -0.530631 58.5176 -0.530631 56.5169 1.59189C54.4147 3.61181 54.4147 7.04404 56.5169 9.06396L63.6208 16.2363H6.70084C3.80152 16.2363 1.5 18.56 1.5 21.4872C1.5 24.4145 3.80152 26.7382 6.70084 26.7382H63.5197L56.5175 34.013C54.4153 36.0329 54.4153 39.4652 56.5175 41.4851C57.5178 42.495 58.9167 43 60.2179 43C61.5191 43 62.9179 42.495 63.9183 41.4851L79.9233 25.3258C82.0256 23.3059 82.0256 19.8736 79.9233 17.8537L63.9177 1.59189Z" fill="black"/>
</svg>
