<svg width="30" height="35" viewBox="0 0 43 44" fill="none" xmlns="http://www.w3.org/2000/svg">
<g clip-path="url(#clip0_40_10)">
<path d="M4 8H39C41.209 8 43 6.208 43 4C43 1.789 41.211 0 39.002 0H4C1.792 0 0 1.789 0 4C0 6.208 1.792 8 4 8ZM39 17.999H4C1.791 17.999 0 19.79 0 22.001C0 24.21 1.792 26.001 4 26.001H39C41.209 26.001 43 24.21 43 22.001C43 19.79 41.209 17.999 39 17.999ZM39 35.999H4C1.791 35.999 0 37.79 0 40.001C0 42.21 1.792 44.001 4 44.001H39C41.209 44.001 43 42.21 43 40.001C43 37.79 41.209 35.999 39 35.999Z" fill="#232020"/>
</g>
<defs>
<clipPath id="clip0_40_10">
<rect width="43" height="44.001" fill="white"/>
</clipPath>
</defs>
</svg>
